<svg width="250" height="250" viewBox="0 0 250 250" fill="none" xmlns="http://www.w3.org/2000/svg">
<path d="M144.92 104.676C130.212 116.869 117.044 129.937 105.443 143.636H105.393H105.391C99.3608 132.134 92.3847 120.81 84.539 109.727L51 121.226C65.7289 136.853 78.5684 153.291 89.1468 170.42L104.021 194.5L115.136 170.765C125.049 149.595 138.73 129.04 156.313 109.708C173.851 90.3587 191.484 77.1524 215.5 60.5C188.349 74.9772 166.889 86.408 144.92 104.676Z" fill="#00CE67"/>
<path fill-rule="evenodd" clip-rule="evenodd" d="M125 250C194.036 250 250 194.036 250 125C250 55.9644 194.036 0 125 0C55.9644 0 0 55.9644 0 125C0 194.036 55.9644 250 125 250ZM124.5 223C178.9 223 223 178.9 223 124.5C223 70.1 178.9 26 124.5 26C70.1 26 26 70.1 26 124.5C26 178.9 70.1 223 124.5 223Z" fill="#00CE67"/>
</svg>
